<svg xmlns="http://www.w3.org/2000/svg" width="65" height="65" viewBox="0 0 17.198 17.198"><path style="isolation:isolate;fill:gray" d="m836.2 1844.55-25.9 5.89a1.22 1.22 0 0 1-1.45-1.14v-49.45a1.22 1.22 0 0 1 1.45-1.14l25.9 5.88a1.24 1.24 0 0 1 .9 1.14v8.27a1.18 1.18 0 1 1-2.36 0v-7.31l-23.54-5.35v46.51l23.54-5.36v-7.3a1.18 1.18 0 1 1 2.36 0v8.24a1.21 1.21 0 0 1-.9 1.12z" class="cls-31" transform="matrix(.26458 0 0 .26458 -212.105 -474.153)"/><path style="isolation:isolate;fill:gray" d="M859.46 1824.57a1.37 1.37 0 0 0-.33-.81l-9.42-10a1.17 1.17 0 0 0-1.66 0 1.22 1.22 0 0 0 0 1.67l7.56 8h-38.52a1.18 1.18 0 1 0 0 2.35h38.47l-7.56 8a1.23 1.23 0 0 0 0 1.66 1.17 1.17 0 0 0 1.66 0l9.42-10a1 1 0 0 0 .38-.87z" class="cls-31" transform="matrix(.26458 0 0 .26458 -212.105 -474.153)"/></svg>