<svg xmlns="http://www.w3.org/2000/svg" width="65" height="65" viewBox="0 0 17.198 17.198"><path class="cls-19" d="M8.591 280.8a.362.362 0 0 0-.206.075l-6.517 5.07a.362.362 0 0 0-.14.285v9.411a.36.36 0 0 0 .362.36H6.06a.362.362 0 0 0 .362-.36v-5.432h4.342v5.432a.362.362 0 0 0 .363.36h3.982a.36.36 0 0 0 .362-.36v-9.41a.362.362 0 0 0-.14-.287l-6.514-5.069a.355.355 0 0 0-.225-.074z" style="isolation:isolate;fill:none;fill-rule:evenodd;stroke:gray;stroke-width:.56356251px;stroke-miterlimit:10" transform="translate(0 -279.802)"/></svg>