<?xml version="1.0" encoding="UTF-8" standalone="no"?>
<!-- Created with Inkscape (http://www.inkscape.org/) -->

<svg
   xmlns:dc="http://purl.org/dc/elements/1.1/"
   xmlns:cc="http://creativecommons.org/ns#"
   xmlns:rdf="http://www.w3.org/1999/02/22-rdf-syntax-ns#"
   xmlns:svg="http://www.w3.org/2000/svg"
   xmlns="http://www.w3.org/2000/svg"
   xmlns:sodipodi="http://sodipodi.sourceforge.net/DTD/sodipodi-0.dtd"
   xmlns:inkscape="http://www.inkscape.org/namespaces/inkscape"
   width="130"
   height="160"
   viewBox="0 0 34.395832 42.333334"
   version="1.1"
   id="svg8302"
   inkscape:version="0.92.1 r15371"
   sodipodi:docname="icon_finger.svg">
  <defs
     id="defs8296" />
  <sodipodi:namedview
     id="base"
     pagecolor="#ffffff"
     bordercolor="#666666"
     borderopacity="1.0"
     inkscape:pageopacity="0.0"
     inkscape:pageshadow="2"
     inkscape:zoom="0.47128943"
     inkscape:cx="338.37249"
     inkscape:cy="555.38291"
     inkscape:document-units="px"
     inkscape:current-layer="layer1"
     showgrid="false"
     units="px"
     inkscape:window-width="1551"
     inkscape:window-height="1221"
     inkscape:window-x="1526"
     inkscape:window-y="37"
     inkscape:window-maximized="0" />
  <metadata
     id="metadata8299">
    <rdf:RDF>
      <cc:Work
         rdf:about="">
        <dc:format>image/svg+xml</dc:format>
        <dc:type
           rdf:resource="http://purl.org/dc/dcmitype/StillImage" />
        <dc:title></dc:title>
      </cc:Work>
    </rdf:RDF>
  </metadata>
  <g
     inkscape:label="Layer 1"
     inkscape:groupmode="layer"
     id="layer1"
     transform="translate(0,-254.66666)">
    <path
       class="cls-32"
       d="M 5.9932888,258.1145 H 28.402544 a 3.3733618,3.3733618 0 0 1 3.362951,3.36295 v 28.71175 a 3.3733618,3.3733618 0 0 1 -3.362951,3.36295 H 5.9932888 A 3.3733618,3.3733618 0 0 1 2.630338,290.1892 v -28.71175 a 3.3733618,3.3733618 0 0 1 3.3629508,-3.36295 z m 1.8324432,7.69766 c 0,-0.0278 6.996602,-9.66545 18.334846,-1.01687 l -0.648991,0.85374 c -10.467139,-7.98222 -16.80781,0.77741 -16.825162,0.8017 z m -1.284099,5.99361 c 1.138337,-2.87361 2.880546,-4.95245 4.91428,-6.24697 a 9.9812638,9.9812638 0 0 1 4.511697,-1.52009 10.41161,10.41161 0 0 1 4.726871,0.72535 c 2.429377,0.95439 4.685225,2.82154 6.427436,5.58408 l -0.905811,0.57264 c -1.61727,-2.56125 -3.703063,-4.27917 -5.917266,-5.15721 a 9.3704493,9.3704493 0 0 0 -4.240995,-0.65246 8.8880447,8.8880447 0 0 0 -4.022353,1.35698 c -1.846325,1.1661 -3.435831,3.07142 -4.487403,5.72291 z m 20.476167,0.20477 c 0,0 2.273201,6.24696 0.482404,10.41161 l -0.989102,-0.41994 c 1.624211,-3.77941 -0.499758,-9.61339 -0.503228,-9.63075 z m -6.680783,10.78643 c 0,0 -1.464567,3.12348 1.995559,6.3129 l -0.732284,0.78435 c -4.029294,-3.73431 -2.245437,-7.52761 -2.241966,-7.54149 z m -7.114601,6.52807 c 0.135352,0 0.02777,-0.0173 -0.05206,-0.0451 l 0.05206,0.0485 z m -0.05206,-0.0451 c -0.04859,0 -0.08677,-0.0348 -0.06594,-0.0555 0.468524,-0.53447 1.415979,-1.60686 2.51267,-1.94697 1.249392,-0.39217 2.575138,0.0694 3.449713,2.8736 l -1.041161,0.3297 c -0.628167,-2.00597 -1.409039,-2.38773 -2.106616,-2.16908 -0.815576,0.25334 -1.627682,1.17304 -2.030263,1.63115 -0.249879,0.28459 -0.412994,0.46851 -0.694108,0.46851 v -1.07239 z m 4.85875,-12.76116 c 0,0.0243 -4.837927,8.67635 -9.693207,11.10572 l -0.478935,-0.95787 c 4.553343,-2.28362 9.221216,-10.65107 9.235097,-10.67537 z m -11.8032939,7.02089 a 21.000218,21.000218 0 0 0 4.2687599,-3.79676 c 1.242452,-1.38822 2.294025,-2.84932 3.10266,-3.96336 l 0.05552,-0.0729 v 0 l 0.267232,-0.36788 v 0 l 0.145762,-0.19781 0.13535,-0.18394 c 1.21816,-1.65198 2.377318,-2.32874 3.352539,-2.30443 0.975221,0.0243 1.769974,0.74616 2.200321,1.90184 a 8.3709347,8.3709347 0 0 1 0.281113,3.95989 c -0.555285,3.8627 -3.244952,8.72492 -9.335743,10.95648 l -0.371347,-1.00992 c 5.643091,-2.08232 8.134938,-6.54544 8.641635,-10.09579 A 7.2395397,7.2395397 0 0 0 18.7475,274.92925 c -0.270702,-0.73575 -0.694108,-1.19039 -1.218159,-1.20427 -0.642049,0 -1.478449,0.53099 -2.460609,1.86715 l -0.138823,0.18394 c -0.01735,0.0243 -0.03123,0.0485 -0.138821,0.19434 v 0 c -0.444229,0.61428 0.08329,-0.11451 -0.260289,0.34706 l -0.05553,0.0763 c -0.815576,1.12446 -1.881031,2.58208 -3.172071,4.03971 a 21.968498,21.968498 0 0 1 -4.494345,3.99112 z m 7.4269479,-7.83299 z m -7.4200064,0.2464 c 0.6767544,-0.7531 1.3639204,-1.64503 2.0823224,-2.57167 a 36.128288,36.128288 0 0 1 3.571181,-4.18893 c 3.123484,-2.95342 6.85431,-4.22712 11.855353,1.04116 2.252379,2.37732 1.943501,5.38974 1.651976,8.20435 -0.274172,2.65843 -0.527522,5.12251 1.710974,6.34761 l -0.51711,0.94051 c -2.863192,-1.56868 -2.575138,-4.3694 -2.26279,-7.39571 0.267232,-2.57861 0.551815,-5.34116 -1.36045,-7.35754 -4.40064,-4.64011 -7.63518,-3.56076 -10.338728,-1.00993 a 34.962188,34.962188 0 0 0 -3.470537,4.06747 c -0.732284,0.95093 -1.436803,1.86715 -2.12744,2.63414 z m 19.1955374,11.75123 c -4.692165,-2.29749 -4.254877,-5.52162 -3.817589,-8.84638 a 17.19651,17.19651 0 0 0 0.239467,-3.29355 6.135909,6.135909 0 0 0 -0.347053,-1.73527 5.3133918,5.3133918 0 0 0 -0.971751,-1.63809 2.9777206,2.9777206 0 0 0 -1.655446,-1.02034 4.2687603,4.2687603 0 0 0 -2.25932,0.20823 c -1.686681,0.56571 -3.49483,1.8845 -5.073924,3.36642 -2.196851,2.05457 -3.932119,4.37635 -4.338172,5.43487 l -1.0029859,-0.38178 c 0.4511689,-1.17305 2.3009669,-3.6753 4.6088729,-5.83398 1.67974,-1.57562 3.61977,-2.98466 5.466097,-3.60241 a 5.3307445,5.3307445 0 0 1 2.825016,-0.24294 4.053587,4.053587 0 0 1 2.245437,1.38821 6.3059653,6.3059653 0 0 1 1.190395,1.9678 7.1111298,7.1111298 0 0 1 0.409522,2.04762 18.220318,18.220318 0 0 1 -0.246407,3.4983 c -0.399112,2.93954 -0.784341,5.78538 3.210245,7.74276 z"
       id="path7563"
       inkscape:connector-curvature="0"
       style="isolation:isolate;fill:#1d92bf;fill-rule:evenodd;stroke-width:0.34705368" />
  </g>
</svg>
