<?xml version="1.0" encoding="UTF-8" standalone="no"?>
<!-- Created with Inkscape (http://www.inkscape.org/) -->

<svg
   xmlns:dc="http://purl.org/dc/elements/1.1/"
   xmlns:cc="http://creativecommons.org/ns#"
   xmlns:rdf="http://www.w3.org/1999/02/22-rdf-syntax-ns#"
   xmlns:svg="http://www.w3.org/2000/svg"
   xmlns="http://www.w3.org/2000/svg"
   xmlns:sodipodi="http://sodipodi.sourceforge.net/DTD/sodipodi-0.dtd"
   xmlns:inkscape="http://www.inkscape.org/namespaces/inkscape"
   width="130"
   height="170"
   viewBox="0 0 34.395833 44.979165"
   version="1.1"
   id="svg8621"
   inkscape:version="0.92.1 r15371"
   sodipodi:docname="icon_tarefas.svg">
  <defs
     id="defs8615" />
  <sodipodi:namedview
     id="base"
     pagecolor="#ffffff"
     bordercolor="#666666"
     borderopacity="1.0"
     inkscape:pageopacity="0.0"
     inkscape:pageshadow="2"
     inkscape:zoom="1.8526413"
     inkscape:cx="41.185104"
     inkscape:cy="154.35722"
     inkscape:document-units="mm"
     inkscape:current-layer="layer1"
     showgrid="false"
     units="px"
     inkscape:window-width="1615"
     inkscape:window-height="1136"
     inkscape:window-x="1150"
     inkscape:window-y="55"
     inkscape:window-maximized="0" />
  <metadata
     id="metadata8618">
    <rdf:RDF>
      <cc:Work
         rdf:about="">
        <dc:format>image/svg+xml</dc:format>
        <dc:type
           rdf:resource="http://purl.org/dc/dcmitype/StillImage" />
        <dc:title></dc:title>
      </cc:Work>
    </rdf:RDF>
  </metadata>
  <g
     inkscape:label="Layer 1"
     inkscape:groupmode="layer"
     id="layer1"
     transform="translate(0,-252.02085)">
    <g
       id="g8592"
       transform="matrix(0.0925033,0,0,0.0925033,-6.4829286,250.82959)"
       style="fill:#1d92bf;fill-opacity:1">
      <polygon
         id="polygon8566"
         points="306.434,163.195 340.045,129.583 332.975,122.512 306.434,149.053 296.441,139.063 289.371,146.134 "
         style="fill:#1d92bf;fill-opacity:1" />
      <polygon
         id="polygon8568"
         points="417.316,481.543 94.684,481.543 94.684,30.457 417.316,30.457 417.316,89.341 427.316,89.341 427.316,20.457 84.684,20.457 84.684,491.543 427.316,491.543 427.316,131.008 417.316,131.008 "
         style="fill:#1d92bf;fill-opacity:1" />
      <rect
         id="rect8570"
         y="104.288"
         x="417.31601"
         width="10"
         height="13.053"
         style="fill:#1d92bf;fill-opacity:1" />
      <path
         id="path8572"
         d="m 103.561,403.504 v 61.667 H 364.139 L 408.44,422.812 V 57.341 H 305.172 c 0.534,-2.922 0.828,-5.926 0.828,-9 v -8 H 206 v 8 c 0,3.074 0.293,6.078 0.826,9 H 103.561 v 329.561 h 10 V 67.341 h 96.199 c 7.495,18.173 25.394,31 46.24,31 20.846,0 38.744,-12.827 46.239,-31 h 96.2 v 347.5 h -42.308 v 27.667 h 10 v -17.667 h 25.716 l -31.721,30.33 H 113.561 V 403.504 Z M 256,88.341 c -21.387,0 -38.906,-16.869 -39.951,-38 h 79.9 c -1.045,21.131 -18.564,38 -39.949,38 z"
         inkscape:connector-curvature="0"
         style="fill:#1d92bf;fill-opacity:1" />
      <rect
         id="rect8574"
         y="57.341"
         x="233"
         width="46"
         height="10"
         style="fill:#1d92bf;fill-opacity:1" />
      <polygon
         id="polygon8576"
         points="200.281,168.895 190.281,168.895 190.281,245.355 262.121,245.355 262.121,235.355 200.281,235.355 "
         style="fill:#1d92bf;fill-opacity:1" />
      <path
         id="path8578"
         d="m 222.688,137.598 v 0.005 h -32.412 v 18.187 h 10 v -8.187 h 22.412 v 57.135 h 46.414 v -57.135 h 4.321 c 1.847,11.743 8.599,21.876 18.087,28.231 v 59.517 h -14.277 v 10 h 24.277 v -64.615 c 4.151,1.386 8.587,2.147 13.199,2.147 23.047,0 41.797,-18.75 41.797,-41.797 0,-23.048 -18.75,-41.798 -41.797,-41.798 -21.874,0 -39.864,16.893 -41.641,38.314 h -3.967 v -0.005 h -46.413 z m 36.414,57.139 h -26.414 v -47.135 h 26.414 z m 55.607,-85.449 c 17.533,0 31.797,14.265 31.797,31.798 0,17.533 -14.264,31.797 -31.797,31.797 -17.533,0 -31.797,-14.264 -31.797,-31.797 0,-17.533 14.264,-31.798 31.797,-31.798 z"
         inkscape:connector-curvature="0"
         style="fill:#1d92bf;fill-opacity:1" />
      <polygon
         id="polygon8580"
         points="184.59,322.186 152.34,322.186 152.34,289.936 173.742,289.936 173.742,279.936 142.34,279.936 142.34,332.186 194.59,332.186 194.59,295.646 206.705,283.53 199.635,276.459 172.581,303.512 164.043,294.975 156.973,302.045 172.581,317.654 184.59,305.646 "
         style="fill:#1d92bf;fill-opacity:1" />
      <polygon
         id="polygon8582"
         points="173.742,366.255 173.742,356.255 142.34,356.255 142.34,408.504 194.59,408.504 194.59,371.965 206.705,359.849 199.635,352.777 172.581,379.83 164.043,371.293 156.973,378.363 172.581,393.973 184.59,381.965 184.59,398.504 152.34,398.504 152.34,366.255 "
         style="fill:#1d92bf;fill-opacity:1" />
      <rect
         id="rect8584"
         y="303.85199"
         x="224.30499"
         width="136.827"
         height="10"
         style="fill:#1d92bf;fill-opacity:1" />
      <rect
         id="rect8586"
         y="285.80899"
         x="224.30499"
         width="136.827"
         height="10"
         style="fill:#1d92bf;fill-opacity:1" />
      <rect
         id="rect8588"
         y="374.297"
         x="224.30499"
         width="136.827"
         height="10"
         style="fill:#1d92bf;fill-opacity:1" />
      <rect
         id="rect8590"
         y="356.255"
         x="224.30499"
         width="136.827"
         height="10"
         style="fill:#1d92bf;fill-opacity:1" />
    </g>
  </g>
</svg>
