<?xml version="1.0" encoding="UTF-8" standalone="no"?>
<!-- Created with Inkscape (http://www.inkscape.org/) -->

<svg
   xmlns:dc="http://purl.org/dc/elements/1.1/"
   xmlns:cc="http://creativecommons.org/ns#"
   xmlns:rdf="http://www.w3.org/1999/02/22-rdf-syntax-ns#"
   xmlns:svg="http://www.w3.org/2000/svg"
   xmlns="http://www.w3.org/2000/svg"
   xmlns:sodipodi="http://sodipodi.sourceforge.net/DTD/sodipodi-0.dtd"
   xmlns:inkscape="http://www.inkscape.org/namespaces/inkscape"
   width="65"
   height="65"
   viewBox="0 0 17.197917 17.197917"
   version="1.1"
   id="svg9268"
   inkscape:version="0.92.1 r15371"
   sodipodi:docname="icon_perfis.svg">
  <defs
     id="defs9262" />
  <sodipodi:namedview
     id="base"
     pagecolor="#ffffff"
     bordercolor="#666666"
     borderopacity="1.0"
     inkscape:pageopacity="0.0"
     inkscape:pageshadow="2"
     inkscape:zoom="3.0897569"
     inkscape:cx="57.757051"
     inkscape:cy="48.810415"
     inkscape:document-units="px"
     inkscape:current-layer="layer1"
     showgrid="false"
     units="px"
     inkscape:window-width="1168"
     inkscape:window-height="1130"
     inkscape:window-x="1609"
     inkscape:window-y="75"
     inkscape:window-maximized="0" />
  <metadata
     id="metadata9265">
    <rdf:RDF>
      <cc:Work
         rdf:about="">
        <dc:format>image/svg+xml</dc:format>
        <dc:type
           rdf:resource="http://purl.org/dc/dcmitype/StillImage" />
        <dc:title></dc:title>
      </cc:Work>
    </rdf:RDF>
  </metadata>
  <g
     inkscape:label="Layer 1"
     inkscape:groupmode="layer"
     id="layer1"
     transform="translate(0,-279.80206)">
    <g
       id="g23445"
       transform="matrix(0.26458334,0,0,0.26458334,-131.7162,-190.80489)">
      <path
         style="isolation:isolate;fill:#808080"
         inkscape:connector-curvature="0"
         id="path7529"
         d="m 517.77,1816.21 a 7,7 0 0 0 -5.55,6.89 1.16,1.16 0 0 0 2.32,0 4.71,4.71 0 0 1 3.73,-4.62 h 0.06 l 6.88,-1.81 a 1.18,1.18 0 0 0 0.87,-1.13 V 1813 l 0.71,0.38 a 7.6,7.6 0 0 0 3.55,0.89 1.17,1.17 0 0 0 0,-2.33 5.27,5.27 0 0 1 -2.46,-0.61 l -1.32,-0.71 a 5.2,5.2 0 0 1 -2.58,-3.25 c -0.48,-1.82 -0.57,-2.17 -0.58,-2.22 a 1.16,1.16 0 0 0 -1.14,-1 h -0.64 c 0,0 -0.06,0 -0.06,0 l -0.48,-3 a 0.33,0.33 0 0 1 0.07,-0.26 0.36,0.36 0 0 1 0.29,-0.13 1.16,1.16 0 0 0 1.16,-1.16 v -3.35 a 1.17,1.17 0 0 0 -0.64,-1 9.63,9.63 0 0 1 2.14,-4.87 1.17,1.17 0 0 0 0.9,-0.22 c 1.47,-1.13 3.19,-2.27 4.85,-2.27 h 1 a 8.07,8.07 0 0 1 4.4,1.31 v 0 a 1.18,1.18 0 0 0 0.45,0.92 7.9,7.9 0 0 1 3.05,5.19 1.15,1.15 0 0 0 -0.64,1 v 3.25 a 1.16,1.16 0 0 0 1.16,1.16 0.35,0.35 0 0 1 0.28,0.13 0.29,0.29 0 0 1 0.08,0.26 l -0.49,3 a 0.09,0.09 0 0 1 -0.06,0 h -0.63 a 1.19,1.19 0 0 0 -1.15,0.94 c 0,0.07 -0.09,0.42 -0.58,2.24 A 5.07,5.07 0 0 1 535,1810 v 0 l -0.07,0.07 -0.1,0.12 v 0 a 1.11,1.11 0 0 0 -0.19,0.79 v 4.5 a 1.15,1.15 0 0 0 0.86,1.12 l 6.88,1.82 h 0.07 a 4.7,4.7 0 0 1 3.72,4.62 1.17,1.17 0 0 0 2.33,0 7,7 0 0 0 -5.55,-6.89 l -6,-1.58 v -3.25 a 7.51,7.51 0 0 0 2,-3.45 c 0.17,-0.66 0.3,-1.13 0.38,-1.47 a 2.36,2.36 0 0 0 2.09,-2 l 0.48,-3 a 2.61,2.61 0 0 0 -0.61,-2.13 2.64,2.64 0 0 0 -0.88,-0.68 v -1.38 a 1.17,1.17 0 0 0 0.72,-1.1 10.22,10.22 0 0 0 -3.58,-7.58 v -0.09 a 1.15,1.15 0 0 0 -0.46,-0.91 10.35,10.35 0 0 0 -6.26,-2.12 h -1 a 9.36,9.36 0 0 0 -5.17,2 1.15,1.15 0 0 0 -1.09,0.17 11.51,11.51 0 0 0 -4,8.58 1.25,1.25 0 0 0 0.33,0.84 1.4,1.4 0 0 0 0.39,0.26 v 1.38 a 2.74,2.74 0 0 0 -0.88,0.68 2.62,2.62 0 0 0 -0.61,2.13 l 0.48,3 a 2.37,2.37 0 0 0 2.09,2 l 0.38,1.47 a 7.57,7.57 0 0 0 2,3.44 v 3.26 z"
         class="cls-27" />
      <path
         style="isolation:isolate;fill:#808080"
         inkscape:connector-curvature="0"
         id="path7531"
         d="m 518.87,1831 a 11.47,11.47 0 1 0 11.47,-11.47 11.49,11.49 0 0 0 -11.47,11.47 z m 20.62,0 a 9.15,9.15 0 1 1 -9.15,-9.15 9.16,9.16 0 0 1 9.15,9.15 z"
         class="cls-27" />
      <path
         style="isolation:isolate;fill:#808080"
         inkscape:connector-curvature="0"
         id="path7533"
         d="m 529.18,1826.35 v 3.49 h -3.49 a 1.16,1.16 0 0 0 0,2.32 h 3.49 v 3.48 a 1.16,1.16 0 1 0 2.32,0 v -3.48 h 3.5 a 1.16,1.16 0 0 0 0,-2.32 h -3.5 v -3.49 a 1.16,1.16 0 0 0 -2.32,0 z"
         class="cls-27" />
      <path
         style="isolation:isolate;fill:#808080"
         inkscape:connector-curvature="0"
         id="path7535"
         d="m 557.1,1797.62 a 29.34,29.34 0 0 0 -6.22,-9.23 29.82,29.82 0 0 0 -4.3,-3.55 29,29 0 0 0 -4.93,-2.67 29,29 0 0 0 -17.16,-1.7 29.36,29.36 0 0 0 -10.39,4.37 29.74,29.74 0 0 0 -4.29,3.55 28.67,28.67 0 0 0 -3.55,4.3 28.74,28.74 0 0 0 -4.37,10.38 29.35,29.35 0 0 0 0,11.71 28.9,28.9 0 0 0 1.69,5.45 29.51,29.51 0 0 0 2.68,4.94 29.1,29.1 0 0 0 3.55,4.29 28.17,28.17 0 0 0 3.43,2.94 1.16,1.16 0 1 0 1.37,-1.87 27.21,27.21 0 0 1 -3.16,-2.71 26.46,26.46 0 0 1 -7.28,-13.51 26.64,26.64 0 0 1 0,-10.77 26.81,26.81 0 0 1 7.28,-13.51 28,28 0 0 1 3.95,-3.26 27.29,27.29 0 0 1 4.54,-2.46 26.55,26.55 0 0 1 5,-1.56 27.12,27.12 0 0 1 10.77,0 26.68,26.68 0 0 1 5,1.56 27.29,27.29 0 0 1 4.54,2.46 27.34,27.34 0 0 1 7.22,7.22 27.29,27.29 0 0 1 2.46,4.54 26.72,26.72 0 0 1 0,20.8 27,27 0 0 1 -8.89,11.2 1.15,1.15 0 0 0 -0.25,1.62 1.17,1.17 0 0 0 0.94,0.48 1.18,1.18 0 0 0 0.68,-0.23 28.26,28.26 0 0 0 3.44,-2.94 29,29 0 0 0 6.22,-9.23 28.9,28.9 0 0 0 1.69,-5.45 29.3,29.3 0 0 0 0,-11.7 28.77,28.77 0 0 0 -1.66,-5.46 z"
         class="cls-27" />
    </g>
  </g>
</svg>
