<?xml version="1.0" encoding="UTF-8" standalone="no"?>
<!-- Created with Inkscape (http://www.inkscape.org/) -->

<svg
   xmlns:dc="http://purl.org/dc/elements/1.1/"
   xmlns:cc="http://creativecommons.org/ns#"
   xmlns:rdf="http://www.w3.org/1999/02/22-rdf-syntax-ns#"
   xmlns:svg="http://www.w3.org/2000/svg"
   xmlns="http://www.w3.org/2000/svg"
   xmlns:sodipodi="http://sodipodi.sourceforge.net/DTD/sodipodi-0.dtd"
   xmlns:inkscape="http://www.inkscape.org/namespaces/inkscape"
   width="65"
   height="65"
   viewBox="0 0 17.197917 17.197917"
   version="1.1"
   id="svg9268"
   inkscape:version="0.92.1 r15371"
   sodipodi:docname="icon_home.svg">
  <defs
     id="defs9262" />
  <sodipodi:namedview
     id="base"
     pagecolor="#ffffff"
     bordercolor="#666666"
     borderopacity="1.0"
     inkscape:pageopacity="0.0"
     inkscape:pageshadow="2"
     inkscape:zoom="3.0897569"
     inkscape:cx="57.757051"
     inkscape:cy="48.810415"
     inkscape:document-units="px"
     inkscape:current-layer="layer1"
     showgrid="false"
     units="px"
     inkscape:window-width="1168"
     inkscape:window-height="1130"
     inkscape:window-x="1609"
     inkscape:window-y="75"
     inkscape:window-maximized="0" />
  <metadata
     id="metadata9265">
    <rdf:RDF>
      <cc:Work
         rdf:about="">
        <dc:format>image/svg+xml</dc:format>
        <dc:type
           rdf:resource="http://purl.org/dc/dcmitype/StillImage" />
        <dc:title></dc:title>
      </cc:Work>
    </rdf:RDF>
  </metadata>
  <g
     inkscape:label="Layer 1"
     inkscape:groupmode="layer"
     id="layer1"
     transform="translate(0,-279.80206)">
    <path
       class="cls-19"
       d="m 8.5910203,280.80089 a 0.36247917,0.36247917 0 0 0 -0.206375,0.0741 l -6.5166875,5.06942 a 0.36247917,0.36247917 0 0 0 -0.1402291,0.28575 v 9.41123 a 0.35983333,0.35983333 0 0 0 0.3624791,0.35983 h 3.96875 a 0.36247917,0.36247917 0 0 0 0.3624792,-0.35983 v -5.4319 h 4.341813 v 5.4319 a 0.36247917,0.36247917 0 0 0 0.362479,0.35983 h 3.981979 a 0.35983333,0.35983333 0 0 0 0.36248,-0.35983 v -9.41123 a 0.36247917,0.36247917 0 0 0 -0.14023,-0.28575 l -6.5140419,-5.06942 a 0.35454167,0.35454167 0 0 0 -0.2248958,-0.0741 z"
       id="path48-6"
       inkscape:connector-curvature="0"
       style="isolation:isolate;fill:none;fill-rule:evenodd;stroke:#808080;stroke-width:0.56356251px;stroke-miterlimit:10" />
  </g>
</svg>
