<?xml version="1.0" encoding="UTF-8"?>
<svg width="65" height="65" version="1.1" viewBox="0 0 17.198 17.198" xmlns="http://www.w3.org/2000/svg" xmlnscc="http://creativecommons.org/ns#" xmlnsdc="http://purl.org/dc/elements/1.1/" xmlnsrdf="http://www.w3.org/1999/02/22-rdf-syntax-ns#">
<metadata>
<rdf:RDF>
<cc:Work rdf:about="">
<dc:format>image/svg+xml</dc:format>
<dc:type rdf:resource="http://purl.org/dc/dcmitype/StillImage"/>
<dc:title/>
</cc:Work>
</rdf:RDF>
</metadata>
<g transform="translate(0 -279.8)">
<path class="cls-19" d="m8.591 280.8a0.36248 0.36248 0 0 0-0.20638 0.0741l-6.5167 5.0694a0.36248 0.36248 0 0 0-0.14023 0.28575v9.4112a0.35983 0.35983 0 0 0 0.36248 0.35983h3.9688a0.36248 0.36248 0 0 0 0.36248-0.35983v-5.4319h4.3418v5.4319a0.36248 0.36248 0 0 0 0.36248 0.35983h3.982a0.35983 0.35983 0 0 0 0.36248-0.35983v-9.4112a0.36248 0.36248 0 0 0-0.14023-0.28575l-6.514-5.0694a0.35454 0.35454 0 0 0-0.2249-0.0741z" fill="none" stroke="#808080" stroke-miterlimit="10" stroke-width=".56356px" style="isolation:isolate"/>
</g>
</svg>
