<svg width="225" height="70" viewBox="0 0 59.531 18.521" xmlns="http://www.w3.org/2000/svg"><g style="isolation:isolate"><path class="cls-14" style="fill:#fff" d="m126.45 113.86-21.57-21.64-21.57 21.64zM126.45 92.22l21.57 21.64 21.64-21.64z" transform="matrix(.26458 0 0 .26458 -21.32 -17.97)"/><path class="cls-14" style="fill:#fff" d="m83.31 92.22 21.57 21.64 21.57-21.64z" transform="matrix(.26458 0 0 .26458 -21.32 -17.97)"/><path class="cls-14" transform="scale(.26458) rotate(-45 25.772 177.114)" style="fill:#fff" d="M132.8 98.56h30.5v30.5h-30.5z"/><path class="cls-14" style="fill:#fff" d="m169.66 92.22-21.64-21.57-21.57 21.57z" transform="matrix(.26458 0 0 .26458 -21.32 -17.97)"/><path class="cls-14" style="fill:#fff" d="m126.45 92.22-21.57-21.57-21.57 21.57zM126.45 113.86H83.31l21.57 21.57z" transform="matrix(.26458 0 0 .26458 -21.32 -17.97)"/><path class="cls-14" style="fill:#fff" d="m104.88 70.65 21.57 21.57 21.57-21.57zM148.02 135.43l-21.57-21.57-21.57 21.57z" transform="matrix(.26458 0 0 .26458 -21.32 -17.97)"/><path class="cls-14" style="fill:#fff" d="m126.45 113.86 21.57 21.57 21.64-21.57z" transform="matrix(.26458 0 0 .26458 -21.32 -17.97)"/><path class="cls-26" d="m83.31 92.22 10.58 10.5" style="fill:none;stroke:#000;stroke-width:.29px;stroke-miterlimit:11.72" transform="matrix(.26458 0 0 .26458 -21.32 -17.97)"/><path class="cls-27" d="m83.31 92.22 21.57-21.57M104.88 70.65H148M83.31 92.22l21.57 21.64M104.88 135.43l-21.57-21.57M83.31 113.86l10.58-11.14M104.88 135.43l43.17-.05M148.05 135.38l21.61-21.52M148 70.65l21.64 21.57M104.88 135.43l43.17-43.19M147.76 92.06l21.86 21.75M169.66 92.22l-10.95 10.62M104.37 113.86 148 70.65" style="fill:none;stroke:#2178b5;stroke-width:.99px;stroke-miterlimit:11.72" transform="matrix(.26458 0 0 .26458 -21.32 -17.97)"/><path class="cls-28" d="M175.91 102.88V88.62h4.53c5 0 5.7.11 7 1.13a7.06 7.06 0 0 1 2.1 3.25 10.18 10.18 0 0 1 .32 3.24c0 2.69-.29 3.8-1.32 5l-.68.84.61.64c1.36 1.41 2.12 4.14 1.95 6.94-.19 3.1-1.09 5.15-2.8 6.39-1.22.88-2.1 1-7.16 1h-4.55zm9.81 8.13c.93-.9 1.1-3.6.3-4.87-.61-1-1-1.08-3.84-1.09h-2.59v6.45l2.88-.06c2.55-.06 2.92-.1 3.25-.43zm-.28-11.82c.85-.72 1-2.63.37-4-.43-.9-1.15-1.1-3.84-1.1h-2.38v5.47h2.7c2.45.01 2.71-.02 3.15-.37zM193.28 102.88V88.62H197v28.52h-3.69zM199.6 115.41v-1.73l4-9.56c2.18-5.25 4-9.66 4.05-9.79.05-.13-.76-.23-3.79-.23H200v-5.48h12.81v2.94l-3.95 9.69c-2.17 5.34-3.95 9.73-3.95 9.77 0 .04 1.82.07 4 .07h4v6H199.6ZM222 117.7c-4.55-.86-7.47-6.53-7.48-14.48a23.55 23.55 0 0 1 1.86-9.84c2.79-6.22 8.77-7.32 12.44-2.29a9.08 9.08 0 0 1 .8 1.2c0 .1-2 3.62-2.22 3.87a4 4 0 0 1-.92-.8 3.92 3.92 0 0 0-6.15.2c-1.37 1.77-2 4.19-2 7.6 0 3.41.8 6.14 2.35 7.64a4.29 4.29 0 0 0 6.32-.8l.68-.84 1.16 2.2 1.16 2.2-.64.94a7.23 7.23 0 0 1-7.36 3.2zM230.13 117.1s1.69-6.43 3.75-14.22l3.75-14.16h2.08l2.09-.06 3.69 14c2 7.7 3.71 14.12 3.74 14.27.03.15-.26.27-2 .23l-2.06-.06-.42-1.7c-.23-.93-.5-2-.59-2.4l-.18-.71h-8.55l-.38 1.55c-.21.86-.48 2-.61 2.41l-.22.85-2 .06h-2.05zm12.37-10.77c0-.13-.68-2.66-1.41-5.62-.73-2.96-1.35-5.4-1.36-5.42-.01-.02-.67 2.51-1.45 5.62l-1.42 5.65h2.86c2.21 0 2.84 0 2.78-.23zM251 102.87V88.6l4.7.06 4.69.06.94.56c1.67 1 2.79 2.74 3.47 5.38a23.68 23.68 0 0 1 .08 7.18 8.87 8.87 0 0 1-3.05 5l-.49.37 2.29 4.7c1.26 2.58 2.29 4.81 2.29 4.95 0 .14-.46.26-2.11.26h-2.11l-2.14-4.68-2.14-4.67-1.27-.06h-1.27v9.36l-1.89.06-1.89.05zm9.29-1.11c.84-.86 1.13-1.91 1-3.74a4.88 4.88 0 0 0-1.19-3.45c-.34-.33-.68-.39-2.83-.44l-2.44-.06v8.37l2.45-.07c2.43-.06 2.45-.06 3-.61zM274.31 117.7c-3.38-.91-5.83-4.6-6.71-10.1a40.44 40.44 0 0 1-.08-8.67c.92-7.08 4.48-11.38 9.12-11a6.14 6.14 0 0 1 4.36 2.29c1.67 1.93 1.66 1.82.39 4-.61 1-1.13 1.9-1.17 1.94-.04.04-.29-.21-.57-.57a4.22 4.22 0 0 0-6.62-.33c-1.32 1.51-2 4.07-2 7.56 0 3.49.77 6.24 2.27 7.85a4.5 4.5 0 0 0 2.9 1.33 5.26 5.26 0 0 0 2.86-1.24l.73-.68v-4.5h-4v-5.29H283v12.56l-.51 1a8 8 0 0 1-3.31 3.34 5.11 5.11 0 0 1-2.67.64 10.25 10.25 0 0 1-2.15-.13zM292.71 117.69c-2.41-.43-4.61-2.47-6-5.52a20.9 20.9 0 0 1-1.68-9.29 21.1 21.1 0 0 1 1.68-9.31c2.66-6.11 8.78-7.55 12.83-3 2.33 2.61 3.56 6.86 3.56 12.32 0 8.26-3 14-7.81 14.82a5.36 5.36 0 0 1-2.61 0zm2.76-6c1.6-.59 3-2.7 3.65-5.37a19.79 19.79 0 0 0 .22-3.68 11.48 11.48 0 0 0-.47-4.16 7.57 7.57 0 0 0-2.66-4.14 4.16 4.16 0 0 0-4.22 0 7.87 7.87 0 0 0-2.67 4.25 10.92 10.92 0 0 0-.48 4.34 11.35 11.35 0 0 0 .48 4.24c1.17 3.8 3.49 5.5 6.15 4.53z" style="fill:#fff;fill-rule:evenodd" transform="matrix(.26458 0 0 .26458 -21.32 -17.97)"/></g></svg>