<svg xmlns="http://www.w3.org/2000/svg" width="65" height="65" viewBox="0 0 17.198 17.198"><g style="stroke:gray;stroke-width:.71462166;stroke-opacity:1"><g style="stroke:gray;stroke-width:.87175673;stroke-opacity:1"><path style="opacity:1;fill:none;fill-opacity:1;fill-rule:nonzero;stroke:gray;stroke-width:8.0728302;stroke-linecap:round;stroke-linejoin:round;stroke-miterlimit:6.19999981;stroke-dasharray:none;stroke-dashoffset:0;stroke-opacity:1;paint-order:normal" d="M1064.034-145.824v108.35h-118.37v-153.947 0h72.773" transform="matrix(.09769 0 0 .09699 -89.564 19.699)"/><path style="opacity:1;fill:none;fill-opacity:1;fill-rule:nonzero;stroke:gray;stroke-width:8.0728302;stroke-linecap:round;stroke-linejoin:round;stroke-miterlimit:4;stroke-dasharray:none;stroke-dashoffset:0;stroke-opacity:1;paint-order:normal" d="M1062.458-144.248h-44.021a1.572 1.572 0 0 1-1.576-1.576v-44.021c0-.873.703-1.576 1.576-1.576l45.597 45.597c0 .873-.703 1.576-1.576 1.576z" transform="matrix(.09769 0 0 .09699 -89.564 19.699)"/></g><path style="fill:none;stroke:gray;stroke-width:6.61769342;stroke-linecap:round;stroke-linejoin:round;stroke-miterlimit:4;stroke-dasharray:none;stroke-opacity:1" d="M-203.727-65.836h56.15M-203.727-86.588h56.15M-203.727-45.084h56.15" transform="matrix(.11908 0 0 .1184 29.616 18.682)"/></g></svg>